<svg width="70" height="48" viewBox="0 0 70 48" fill="none" xmlns="http://www.w3.org/2000/svg">
<rect width="70" height="48" rx="4" fill="#EFEFEF"/>
<path d="M22 14.9658L25.8752 21.8925V26.1176L22.0045 33.0306L22 14.9658Z" fill="#5B57A2"/>
<path d="M36.8789 19.3712L40.5101 17.1456L47.9416 17.1387L36.8789 23.9157V19.3712Z" fill="#D90751"/>
<path d="M36.8579 14.9245L36.8784 24.0952L32.9941 21.7085V8L36.8579 14.9245Z" fill="#FAB718"/>
<path d="M47.9411 17.1389L40.5093 17.1459L36.8579 14.9245L32.9941 8L47.9411 17.1389Z" fill="#ED6F26"/>
<path d="M36.8784 33.069V28.6197L32.9941 26.2783L32.9963 40.0005L36.8784 33.069Z" fill="#63B22F"/>
<path d="M40.5013 30.8637L25.8749 21.8925L22 14.9658L47.9261 30.8546L40.5013 30.8637Z" fill="#1487C9"/>
<path d="M32.998 40.0004L36.8796 33.0689L40.5018 30.8636L47.9266 30.8545L32.998 40.0004Z" fill="#017F36"/>
<path d="M22.0039 33.0305L33.026 26.2785L29.3204 24.0049L25.8746 26.1174L22.0039 33.0305Z" fill="#984995"/>
</svg>
